# This file uses centimeters as units for non-parametric coordinates.

v -2.830886 -0.797708 -3.421010
v -2.830886 -0.794260 -3.699778
v -2.830886 -0.689941 -3.921010
v -2.830886 -0.309017 -4.063050
v -2.830886 0.000000 -4.111993
v -2.830886 0.000000 -2.111992
v -2.830886 -0.309017 -2.160936
v -2.830886 -0.689941 -2.302975
v -2.830886 -0.794260 -2.524207
v -2.830886 -0.797708 -2.802975
v -2.830886 -0.798897 -3.111993
v -1.981620 -0.797708 -3.421010
v -1.981620 -0.794260 -3.699778
v -1.981620 -0.689941 -3.921010
v -1.981620 -0.309017 -4.063050
v -1.981620 0.000000 -4.111993
v -1.981620 0.000000 -2.111992
v -1.981620 -0.309017 -2.160936
v -1.981620 -0.689941 -2.302975
v -1.981620 -0.794260 -2.524207
v -1.981620 -0.797708 -2.802975
v -1.981620 -0.798897 -3.111993
v -1.132354 -0.797708 -3.421010
v -1.132354 -0.794260 -3.699778
v -1.132354 -0.689941 -3.921010
v -1.132354 -0.309017 -4.063050
v -1.132354 0.000000 -4.111993
v -1.132354 0.000000 -2.111992
v -1.132354 -0.309017 -2.160936
v -1.132354 -0.689941 -2.302975
v -1.132354 -0.794260 -2.524207
v -1.132354 -0.797708 -2.802975
v -1.132354 -0.798897 -3.111993
v -0.849266 -0.797708 -3.421010
v -0.849266 -0.794260 -3.699778
v -0.849266 -0.689941 -3.921010
v -0.849266 -0.309017 -4.063050
v -0.849266 0.000000 -4.111993
v -0.849266 0.000000 -2.111992
v -0.849266 -0.309017 -2.160936
v -0.849266 -0.689941 -2.302975
v -0.849266 -0.794260 -2.524207
v -0.849266 -0.797708 -2.802975
v -0.849266 -0.798897 -3.111993
v -0.566177 -0.797708 -3.421010
v -0.566177 -0.794260 -3.699778
v -0.566177 -0.689941 -3.921010
v -0.566177 -0.309017 -4.063050
v -0.566177 0.000000 -4.111993
v -0.566177 0.000000 -2.111992
v -0.566177 -0.309017 -2.160936
v -0.566177 -0.689941 -2.302975
v -0.566177 -0.794260 -2.524207
v -0.566177 -0.797708 -2.802975
v -0.566177 -0.798897 -3.111993
v 0.283089 -0.797708 -3.421010
v 0.283089 -0.794260 -3.699778
v 0.283089 -0.689941 -3.921010
v 0.283089 -0.309017 -4.063050
v 0.283089 0.000000 -4.111993
v 0.283089 0.000000 -2.111992
v 0.283089 -0.309017 -2.160936
v 0.283089 -0.689941 -2.302975
v 0.283089 -0.794260 -2.524207
v 0.283089 -0.797708 -2.802975
v 0.283089 -0.798897 -3.111993
v 1.132354 -0.797708 -3.421010
v 1.132354 -0.794260 -3.699778
v 1.132354 -0.689941 -3.921010
v 1.132354 -0.309017 -4.063050
v 1.132354 0.000000 -4.111993
v 1.132354 0.000000 -2.111992
v 1.132354 -0.309017 -2.160936
v 1.132354 -0.689941 -2.302975
v 1.132354 -0.794260 -2.524207
v 1.132354 -0.797708 -2.802975
v 1.132354 -0.798897 -3.111993
v 1.698531 -0.797708 -3.421010
v 1.698531 -0.794260 -3.699778
v 1.698531 -0.689941 -3.921010
v 1.698531 -0.309017 -4.063050
v 1.698531 0.000000 -4.111993
v 1.698531 0.000000 -2.111992
v 1.698531 -0.309017 -2.160936
v 1.698531 -0.689941 -2.302975
v 1.698531 -0.794260 -2.524207
v 1.698531 -0.797708 -2.802975
v 1.698531 -0.798897 -3.111993
v 2.547797 -0.797708 -3.421010
v 2.547797 -0.794260 -3.699778
v 2.547797 -0.689941 -3.921010
v 2.547797 -0.309017 -4.063050
v 2.547797 0.000000 -4.111993
v 2.547797 0.000000 -2.111992
v 2.547797 -0.309017 -2.160936
v 2.547797 -0.689941 -2.302975
v 2.547797 -0.794260 -2.524207
v 2.547797 -0.797708 -2.802975
v 2.547797 -0.798897 -3.111993
v 2.830886 -0.797708 -3.421010
v 2.830886 -0.794260 -3.699778
v 2.830886 -0.689941 -3.921010
v 2.830886 -0.309017 -4.063050
v 2.830886 0.000000 -4.111993
v 2.830886 0.000000 -2.111992
v 2.830886 -0.309017 -2.160936
v 2.830886 -0.689941 -2.302975
v 2.830886 -0.794260 -2.524207
v 2.830886 -0.797708 -2.802975
v 2.830886 -0.798897 -3.111993
vt 0.375000 0.312500
vt 0.387500 0.312500
vt 0.400000 0.312500
vt 0.412500 0.312500
vt 0.425000 0.312500
vt 0.550000 0.312500
vt 0.562500 0.312500
vt 0.575000 0.312500
vt 0.587500 0.312500
vt 0.600000 0.312500
vt 0.612500 0.312500
vt 0.625000 0.312500
vt 0.375000 0.368891
vt 0.387500 0.368891
vt 0.400000 0.368891
vt 0.412500 0.368891
vt 0.425000 0.368891
vt 0.550000 0.368891
vt 0.562500 0.368891
vt 0.575000 0.368891
vt 0.587500 0.368891
vt 0.600000 0.368891
vt 0.612500 0.368891
vt 0.625000 0.368891
vt 0.375000 0.425282
vt 0.387500 0.425282
vt 0.400000 0.425282
vt 0.412500 0.425282
vt 0.425000 0.425282
vt 0.550000 0.425282
vt 0.562500 0.425282
vt 0.575000 0.425282
vt 0.587500 0.425282
vt 0.600000 0.425282
vt 0.612500 0.425282
vt 0.625000 0.425282
vt 0.375000 0.444079
vt 0.387500 0.444079
vt 0.400000 0.444079
vt 0.412500 0.444079
vt 0.425000 0.444079
vt 0.550000 0.444079
vt 0.562500 0.444079
vt 0.575000 0.444079
vt 0.587500 0.444079
vt 0.600000 0.444079
vt 0.612500 0.444079
vt 0.625000 0.444079
vt 0.375000 0.462876
vt 0.387500 0.462876
vt 0.400000 0.462876
vt 0.412500 0.462876
vt 0.425000 0.462876
vt 0.550000 0.462876
vt 0.562500 0.462876
vt 0.575000 0.462876
vt 0.587500 0.462876
vt 0.600000 0.462876
vt 0.612500 0.462876
vt 0.625000 0.462876
vt 0.375000 0.519267
vt 0.387500 0.519267
vt 0.400000 0.519267
vt 0.412500 0.519267
vt 0.425000 0.519267
vt 0.550000 0.519267
vt 0.562500 0.519267
vt 0.575000 0.519267
vt 0.587500 0.519267
vt 0.600000 0.519267
vt 0.612500 0.519267
vt 0.625000 0.519267
vt 0.375000 0.575658
vt 0.387500 0.575658
vt 0.400000 0.575658
vt 0.412500 0.575658
vt 0.425000 0.575658
vt 0.550000 0.575658
vt 0.562500 0.575658
vt 0.575000 0.575658
vt 0.587500 0.575658
vt 0.600000 0.575658
vt 0.612500 0.575658
vt 0.625000 0.575658
vt 0.375000 0.613252
vt 0.387500 0.613252
vt 0.400000 0.613252
vt 0.412500 0.613252
vt 0.425000 0.613252
vt 0.550000 0.613252
vt 0.562500 0.613252
vt 0.575000 0.613252
vt 0.587500 0.613252
vt 0.600000 0.613252
vt 0.612500 0.613252
vt 0.625000 0.613252
vt 0.375000 0.669643
vt 0.387500 0.669643
vt 0.400000 0.669643
vt 0.412500 0.669643
vt 0.425000 0.669643
vt 0.550000 0.669643
vt 0.562500 0.669643
vt 0.575000 0.669643
vt 0.587500 0.669643
vt 0.600000 0.669643
vt 0.612500 0.669643
vt 0.625000 0.669643
vt 0.375000 0.688440
vt 0.387500 0.688440
vt 0.400000 0.688440
vt 0.412500 0.688440
vt 0.425000 0.688440
vt 0.550000 0.688440
vt 0.562500 0.688440
vt 0.575000 0.688440
vt 0.587500 0.688440
vt 0.600000 0.688440
vt 0.612500 0.688440
vt 0.625000 0.688440
vn 0.000000 0.999969 0.007888
vn 0.000000 0.999969 0.007888
vn 0.000000 0.977552 0.210696
vn 0.000000 0.977552 0.210696
vn 0.000000 0.599302 0.800523
vn 0.000000 0.599302 0.800523
vn 0.000000 0.266778 0.963758
vn 0.000000 0.266778 0.963758
vn 0.000000 0.156434 0.987688
vn 0.000000 0.156434 0.987688
vn 0.000000 0.156435 -0.987688
vn 0.000000 0.156435 -0.987688
vn 0.000000 0.266779 -0.963758
vn 0.000000 0.266779 -0.963758
vn 0.000000 0.599302 -0.800523
vn 0.000000 0.599302 -0.800523
vn 0.000000 0.977552 -0.210696
vn 0.000000 0.977552 -0.210696
vn 0.000000 0.999969 -0.007888
vn 0.000000 0.999969 -0.007888
vn 0.000000 1.000000 -0.000000
vn 0.000000 1.000000 -0.000000
vn 0.000000 0.999969 0.007888
vn 0.000000 0.977552 0.210696
vn 0.000000 0.599302 0.800523
vn 0.000000 0.266778 0.963758
vn 0.000000 0.156434 0.987688
vn 0.000000 0.156435 -0.987688
vn 0.000000 0.266778 -0.963758
vn 0.000000 0.599302 -0.800523
vn 0.000000 0.977552 -0.210696
vn 0.000000 0.999969 -0.007888
vn 0.000000 1.000000 -0.000000
vn 0.000000 0.999969 0.007888
vn 0.000000 0.977552 0.210696
vn 0.000000 0.599302 0.800523
vn 0.000000 0.266778 0.963758
vn 0.000000 0.156434 0.987688
vn 0.000000 0.156435 -0.987688
vn 0.000000 0.266778 -0.963758
vn 0.000000 0.599302 -0.800523
vn 0.000000 0.977552 -0.210696
vn 0.000000 0.999969 -0.007888
vn 0.000000 1.000000 -0.000000
vn 0.000000 0.999969 0.007888
vn 0.000000 0.977552 0.210696
vn 0.000000 0.599302 0.800523
vn 0.000000 0.266778 0.963758
vn 0.000000 0.156434 0.987688
vn 0.000000 0.156435 -0.987688
vn 0.000000 0.266779 -0.963758
vn 0.000000 0.599302 -0.800523
vn 0.000000 0.977552 -0.210696
vn 0.000000 0.999969 -0.007888
vn 0.000000 1.000000 -0.000000
vn 0.000000 0.999969 0.007888
vn 0.000000 0.977552 0.210696
vn 0.000000 0.599302 0.800523
vn 0.000000 0.266778 0.963758
vn 0.000000 0.156434 0.987688
vn 0.000000 0.156435 -0.987688
vn 0.000000 0.266779 -0.963758
vn 0.000000 0.599302 -0.800523
vn 0.000000 0.977552 -0.210696
vn 0.000000 0.999969 -0.007888
vn 0.000000 1.000000 -0.000000
vn 0.000000 0.999969 0.007888
vn 0.000000 0.977552 0.210696
vn 0.000000 0.599302 0.800523
vn 0.000000 0.266778 0.963758
vn 0.000000 0.156434 0.987688
vn 0.000000 0.156435 -0.987688
vn 0.000000 0.266778 -0.963758
vn 0.000000 0.599302 -0.800523
vn 0.000000 0.977552 -0.210696
vn 0.000000 0.999969 -0.007888
vn 0.000000 1.000000 -0.000000
vn 0.000000 0.999969 0.007888
vn 0.000000 0.977552 0.210696
vn 0.000000 0.599302 0.800523
vn 0.000000 0.266778 0.963758
vn 0.000000 0.156434 0.987688
vn 0.000000 0.156435 -0.987688
vn 0.000000 0.266779 -0.963758
vn 0.000000 0.599302 -0.800523
vn 0.000000 0.977552 -0.210696
vn 0.000000 0.999969 -0.007888
vn 0.000000 1.000000 -0.000000
vn 0.000000 0.999969 0.007888
vn 0.000000 0.977552 0.210696
vn 0.000000 0.599302 0.800523
vn 0.000000 0.266778 0.963758
vn 0.000000 0.156434 0.987688
vn 0.000000 0.156435 -0.987688
vn 0.000000 0.266779 -0.963758
vn 0.000000 0.599302 -0.800523
vn 0.000000 0.977552 -0.210696
vn 0.000000 0.999969 -0.007888
vn 0.000000 1.000000 -0.000000
vn 0.000000 0.999969 0.007888
vn 0.000000 0.977552 0.210696
vn 0.000000 0.599303 0.800523
vn 0.000000 0.266778 0.963758
vn 0.000000 0.156434 0.987688
vn 0.000000 0.156435 -0.987688
vn 0.000000 0.266778 -0.963758
vn 0.000000 0.599302 -0.800523
vn 0.000000 0.977552 -0.210696
vn 0.000000 0.999969 -0.007888
vn 0.000000 1.000000 -0.000000
f 1/1/1 12/13/2 13/14/3 2/2/4
f 2/2/4 13/14/3 14/15/5 3/3/6
f 3/3/6 14/15/5 15/16/7 4/4/8
f 4/4/8 15/16/7 16/17/9 5/5/10
f 6/6/11 17/18/12 18/19/13 7/7/14
f 7/7/14 18/19/13 19/20/15 8/8/16
f 8/8/16 19/20/15 20/21/17 9/9/18
f 9/9/18 20/21/17 21/22/19 10/10/20
f 10/10/20 21/22/19 22/23/21 11/11/22
f 11/11/22 22/23/21 12/24/2 1/12/1
f 12/13/2 23/25/23 24/26/24 13/14/3
f 13/14/3 24/26/24 25/27/25 14/15/5
f 14/15/5 25/27/25 26/28/26 15/16/7
f 15/16/7 26/28/26 27/29/27 16/17/9
f 17/18/12 28/30/28 29/31/29 18/19/13
f 18/19/13 29/31/29 30/32/30 19/20/15
f 19/20/15 30/32/30 31/33/31 20/21/17
f 20/21/17 31/33/31 32/34/32 21/22/19
f 21/22/19 32/34/32 33/35/33 22/23/21
f 22/23/21 33/35/33 23/36/23 12/24/2
f 23/25/23 34/37/34 35/38/35 24/26/24
f 24/26/24 35/38/35 36/39/36 25/27/25
f 25/27/25 36/39/36 37/40/37 26/28/26
f 26/28/26 37/40/37 38/41/38 27/29/27
f 28/30/28 39/42/39 40/43/40 29/31/29
f 29/31/29 40/43/40 41/44/41 30/32/30
f 30/32/30 41/44/41 42/45/42 31/33/31
f 31/33/31 42/45/42 43/46/43 32/34/32
f 32/34/32 43/46/43 44/47/44 33/35/33
f 33/35/33 44/47/44 34/48/34 23/36/23
f 34/37/34 45/49/45 46/50/46 35/38/35
f 35/38/35 46/50/46 47/51/47 36/39/36
f 36/39/36 47/51/47 48/52/48 37/40/37
f 37/40/37 48/52/48 49/53/49 38/41/38
f 39/42/39 50/54/50 51/55/51 40/43/40
f 40/43/40 51/55/51 52/56/52 41/44/41
f 41/44/41 52/56/52 53/57/53 42/45/42
f 42/45/42 53/57/53 54/58/54 43/46/43
f 43/46/43 54/58/54 55/59/55 44/47/44
f 44/47/44 55/59/55 45/60/45 34/48/34
f 45/49/45 56/61/56 57/62/57 46/50/46
f 46/50/46 57/62/57 58/63/58 47/51/47
f 47/51/47 58/63/58 59/64/59 48/52/48
f 48/52/48 59/64/59 60/65/60 49/53/49
f 50/54/50 61/66/61 62/67/62 51/55/51
f 51/55/51 62/67/62 63/68/63 52/56/52
f 52/56/52 63/68/63 64/69/64 53/57/53
f 53/57/53 64/69/64 65/70/65 54/58/54
f 54/58/54 65/70/65 66/71/66 55/59/55
f 55/59/55 66/71/66 56/72/56 45/60/45
f 56/61/56 67/73/67 68/74/68 57/62/57
f 57/62/57 68/74/68 69/75/69 58/63/58
f 58/63/58 69/75/69 70/76/70 59/64/59
f 59/64/59 70/76/70 71/77/71 60/65/60
f 61/66/61 72/78/72 73/79/73 62/67/62
f 62/67/62 73/79/73 74/80/74 63/68/63
f 63/68/63 74/80/74 75/81/75 64/69/64
f 64/69/64 75/81/75 76/82/76 65/70/65
f 65/70/65 76/82/76 77/83/77 66/71/66
f 66/71/66 77/83/77 67/84/67 56/72/56
f 67/73/67 78/85/78 79/86/79 68/74/68
f 68/74/68 79/86/79 80/87/80 69/75/69
f 69/75/69 80/87/80 81/88/81 70/76/70
f 70/76/70 81/88/81 82/89/82 71/77/71
f 72/78/72 83/90/83 84/91/84 73/79/73
f 73/79/73 84/91/84 85/92/85 74/80/74
f 74/80/74 85/92/85 86/93/86 75/81/75
f 75/81/75 86/93/86 87/94/87 76/82/76
f 76/82/76 87/94/87 88/95/88 77/83/77
f 77/83/77 88/95/88 78/96/78 67/84/67
f 78/85/78 89/97/89 90/98/90 79/86/79
f 79/86/79 90/98/90 91/99/91 80/87/80
f 80/87/80 91/99/91 92/100/92 81/88/81
f 81/88/81 92/100/92 93/101/93 82/89/82
f 83/90/83 94/102/94 95/103/95 84/91/84
f 84/91/84 95/103/95 96/104/96 85/92/85
f 85/92/85 96/104/96 97/105/97 86/93/86
f 86/93/86 97/105/97 98/106/98 87/94/87
f 87/94/87 98/106/98 99/107/99 88/95/88
f 88/95/88 99/107/99 89/108/89 78/96/78
f 89/97/89 100/109/100 101/110/101 90/98/90
f 90/98/90 101/110/101 102/111/102 91/99/91
f 91/99/91 102/111/102 103/112/103 92/100/92
f 92/100/92 103/112/103 104/113/104 93/101/93
f 94/102/94 105/114/105 106/115/106 95/103/95
f 95/103/95 106/115/106 107/116/107 96/104/96
f 96/104/96 107/116/107 108/117/108 97/105/97
f 97/105/97 108/117/108 109/118/109 98/106/98
f 98/106/98 109/118/109 110/119/110 99/107/99
f 99/107/99 110/119/110 100/120/100 89/108/89
