# This file uses centimeters as units for non-parametric coordinates.

v -2.830886 -0.951057 -0.309017
v -2.830886 -0.809018 -0.587786
v -2.830886 -0.587786 -0.809017
v -2.830886 -0.309017 -0.951057
v -2.830886 0.000000 -1.000000
v -2.830886 0.000000 1.000000
v -2.830886 -0.309017 0.951057
v -2.830886 -0.587785 0.809017
v -2.830886 -0.809017 0.587785
v -2.830886 -0.951057 0.309017
v -2.830886 -1.000000 0.000000
v -1.415443 -0.951057 -0.309017
v -1.415443 -0.809018 -0.587786
v -1.415443 -0.587786 -0.809017
v -1.415443 -0.309017 -0.951057
v -1.415443 0.000000 -1.000000
v -1.415443 0.000000 1.000000
v -1.415443 -0.309017 0.951057
v -1.415443 -0.587785 0.809017
v -1.415443 -0.809017 0.587785
v -1.415443 -0.951057 0.309017
v -1.415443 -1.000000 0.000000
v 0.000000 -0.951057 -0.309017
v 0.000000 -0.809018 -0.587786
v 0.000000 -0.587786 -0.809017
v 0.000000 -0.309017 -0.951057
v 0.000000 0.000000 -1.000000
v 0.000000 0.000000 1.000000
v 0.000000 -0.309017 0.951057
v 0.000000 -0.587785 0.809017
v 0.000000 -0.809017 0.587785
v 0.000000 -0.951057 0.309017
v 0.000000 -1.000000 0.000000
v 1.415443 -0.951057 -0.309017
v 1.415443 -0.809018 -0.587786
v 1.415443 -0.587786 -0.809017
v 1.415443 -0.309017 -0.951057
v 1.415443 0.000000 -1.000000
v 1.415443 0.000000 1.000000
v 1.415443 -0.309017 0.951057
v 1.415443 -0.587785 0.809017
v 1.415443 -0.809017 0.587785
v 1.415443 -0.951057 0.309017
v 1.415443 -1.000000 0.000000
v 2.830886 -0.951057 -0.309017
v 2.830886 -0.809018 -0.587786
v 2.830886 -0.587786 -0.809017
v 2.830886 -0.309017 -0.951057
v 2.830886 0.000000 -1.000000
v 2.830886 0.000000 1.000000
v 2.830886 -0.309017 0.951057
v 2.830886 -0.587785 0.809017
v 2.830886 -0.809017 0.587785
v 2.830886 -0.951057 0.309017
v 2.830886 -1.000000 0.000000
vt 0.375000 0.312500
vt 0.387500 0.312500
vt 0.400000 0.312500
vt 0.412500 0.312500
vt 0.425000 0.312500
vt 0.550000 0.312500
vt 0.562500 0.312500
vt 0.575000 0.312500
vt 0.587500 0.312500
vt 0.600000 0.312500
vt 0.612500 0.312500
vt 0.625000 0.312500
vt 0.375000 0.406485
vt 0.387500 0.406485
vt 0.400000 0.406485
vt 0.412500 0.406485
vt 0.425000 0.406485
vt 0.550000 0.406485
vt 0.562500 0.406485
vt 0.575000 0.406485
vt 0.587500 0.406485
vt 0.600000 0.406485
vt 0.612500 0.406485
vt 0.625000 0.406485
vt 0.375000 0.500470
vt 0.387500 0.500470
vt 0.400000 0.500470
vt 0.412500 0.500470
vt 0.425000 0.500470
vt 0.550000 0.500470
vt 0.562500 0.500470
vt 0.575000 0.500470
vt 0.587500 0.500470
vt 0.600000 0.500470
vt 0.612500 0.500470
vt 0.625000 0.500470
vt 0.375000 0.594455
vt 0.387500 0.594455
vt 0.400000 0.594455
vt 0.412500 0.594455
vt 0.425000 0.594455
vt 0.550000 0.594455
vt 0.562500 0.594455
vt 0.575000 0.594455
vt 0.587500 0.594455
vt 0.600000 0.594455
vt 0.612500 0.594455
vt 0.625000 0.594455
vt 0.375000 0.688440
vt 0.387500 0.688440
vt 0.400000 0.688440
vt 0.412500 0.688440
vt 0.425000 0.688440
vt 0.550000 0.688440
vt 0.562500 0.688440
vt 0.575000 0.688440
vt 0.587500 0.688440
vt 0.600000 0.688440
vt 0.612500 0.688440
vt 0.625000 0.688440
vn 0.000000 0.951057 0.309016
vn 0.000000 0.951057 0.309016
vn 0.000000 0.809017 0.587785
vn 0.000000 0.809017 0.587785
vn 0.000000 0.587785 0.809017
vn 0.000000 0.587785 0.809017
vn 0.000000 0.309017 0.951057
vn 0.000000 0.309017 0.951057
vn 0.000000 0.156434 0.987688
vn 0.000000 0.156434 0.987688
vn 0.000000 0.156435 -0.987688
vn 0.000000 0.156435 -0.987688
vn 0.000000 0.309017 -0.951057
vn 0.000000 0.309017 -0.951057
vn 0.000000 0.587785 -0.809017
vn 0.000000 0.587785 -0.809017
vn 0.000000 0.809017 -0.587785
vn 0.000000 0.809017 -0.587785
vn 0.000000 0.951057 -0.309017
vn 0.000000 0.951057 -0.309017
vn 0.000000 1.000000 -0.000001
vn 0.000000 1.000000 -0.000001
vn 0.000000 0.951057 0.309016
vn 0.000000 0.809017 0.587785
vn 0.000000 0.587785 0.809017
vn 0.000000 0.309017 0.951057
vn 0.000000 0.156434 0.987688
vn 0.000000 0.156435 -0.987688
vn 0.000000 0.309017 -0.951057
vn 0.000000 0.587785 -0.809017
vn 0.000000 0.809017 -0.587785
vn 0.000000 0.951057 -0.309017
vn 0.000000 1.000000 -0.000001
vn 0.000000 0.951057 0.309016
vn 0.000000 0.809017 0.587785
vn 0.000000 0.587785 0.809017
vn 0.000000 0.309017 0.951057
vn 0.000000 0.156434 0.987688
vn 0.000000 0.156435 -0.987688
vn 0.000000 0.309017 -0.951057
vn 0.000000 0.587785 -0.809017
vn 0.000000 0.809017 -0.587785
vn 0.000000 0.951057 -0.309017
vn 0.000000 1.000000 -0.000001
vn 0.000000 0.951057 0.309016
vn 0.000000 0.809017 0.587785
vn 0.000000 0.587785 0.809017
vn 0.000000 0.309017 0.951057
vn 0.000000 0.156434 0.987688
vn 0.000000 0.156435 -0.987688
vn 0.000000 0.309017 -0.951057
vn 0.000000 0.587785 -0.809017
vn 0.000000 0.809017 -0.587785
vn 0.000000 0.951057 -0.309017
vn 0.000000 1.000000 -0.000001
f 1/1/1 12/13/2 13/14/3 2/2/4
f 2/2/4 13/14/3 14/15/5 3/3/6
f 3/3/6 14/15/5 15/16/7 4/4/8
f 4/4/8 15/16/7 16/17/9 5/5/10
f 6/6/11 17/18/12 18/19/13 7/7/14
f 7/7/14 18/19/13 19/20/15 8/8/16
f 8/8/16 19/20/15 20/21/17 9/9/18
f 9/9/18 20/21/17 21/22/19 10/10/20
f 10/10/20 21/22/19 22/23/21 11/11/22
f 11/11/22 22/23/21 12/24/2 1/12/1
f 12/13/2 23/25/23 24/26/24 13/14/3
f 13/14/3 24/26/24 25/27/25 14/15/5
f 14/15/5 25/27/25 26/28/26 15/16/7
f 15/16/7 26/28/26 27/29/27 16/17/9
f 17/18/12 28/30/28 29/31/29 18/19/13
f 18/19/13 29/31/29 30/32/30 19/20/15
f 19/20/15 30/32/30 31/33/31 20/21/17
f 20/21/17 31/33/31 32/34/32 21/22/19
f 21/22/19 32/34/32 33/35/33 22/23/21
f 22/23/21 33/35/33 23/36/23 12/24/2
f 23/25/23 34/37/34 35/38/35 24/26/24
f 24/26/24 35/38/35 36/39/36 25/27/25
f 25/27/25 36/39/36 37/40/37 26/28/26
f 26/28/26 37/40/37 38/41/38 27/29/27
f 28/30/28 39/42/39 40/43/40 29/31/29
f 29/31/29 40/43/40 41/44/41 30/32/30
f 30/32/30 41/44/41 42/45/42 31/33/31
f 31/33/31 42/45/42 43/46/43 32/34/32
f 32/34/32 43/46/43 44/47/44 33/35/33
f 33/35/33 44/47/44 34/48/34 23/36/23
f 34/37/34 45/49/45 46/50/46 35/38/35
f 35/38/35 46/50/46 47/51/47 36/39/36
f 36/39/36 47/51/47 48/52/48 37/40/37
f 37/40/37 48/52/48 49/53/49 38/41/38
f 39/42/39 50/54/50 51/55/51 40/43/40
f 40/43/40 51/55/51 52/56/52 41/44/41
f 41/44/41 52/56/52 53/57/53 42/45/42
f 42/45/42 53/57/53 54/58/54 43/46/43
f 43/46/43 54/58/54 55/59/55 44/47/44
f 44/47/44 55/59/55 45/60/45 34/48/34
