# This file uses centimeters as units for non-parametric coordinates.

v -5.859361 0.709780 2.829909
v -5.530556 0.671674 3.165281
v -5.149426 0.680720 3.449503
v -4.710400 0.697061 3.934561
v -4.294042 0.689337 4.312750
v -3.834093 0.684847 4.631374
v -3.365549 0.696535 4.877014
v 3.122895 0.654771 2.827131
v 3.108246 0.686797 2.553557
v 3.121938 0.693711 2.357345
v 3.139731 0.689235 2.144987
v 3.224646 0.665401 1.904487
v -6.169675 0.766133 2.648253
v -6.551318 0.848231 2.356764
v 3.329340 0.628043 1.553076
v 3.560464 0.601630 1.233220
v -3.249125 0.755621 -2.854338
v -3.049988 0.754581 -2.783833
v -2.870634 0.753783 -2.702415
v 3.949920 0.758533 -4.252737
v 3.844648 0.759199 -4.649602
v 3.510594 0.759222 -5.455570
v -2.678462 0.753511 -2.629110
v -2.410120 0.753013 -2.513192
v -2.195912 0.752356 -2.365901
v -2.016435 0.777734 -2.239733
v -1.850864 0.823580 -2.052126
v 2.699673 0.758889 -5.977494
v 3.140347 0.759597 -5.842907
v 4.622892 0.756788 0.009002
v 4.612941 0.755153 -0.362653
v 4.565975 0.756902 -0.572753
v -5.590597 0.862083 -0.453359
v -5.672175 0.767971 -0.904424
v -5.787967 0.705458 -1.209690
v -5.847034 0.665808 -1.479396
v 0.066543 0.777808 -1.886354
v 0.705401 0.741638 -3.123917
v 0.998432 0.747564 -3.590653
v -1.408020 0.817379 4.118707
v -0.910768 0.756029 4.556870
v -0.180611 0.705278 3.982732
v 1.564531 0.754524 -4.708350
v 1.783842 0.756457 -5.176035
v 2.179793 0.755359 -5.688545
v 1.619002 0.548699 3.952235
v 2.361036 0.510220 3.896554
v 2.811465 0.532100 3.544804
v -1.057396 1.075285 -1.073001
v -0.821090 1.022723 -1.018590
v -0.562484 0.927903 -1.103715
v -2.674049 0.716403 4.948302
v -2.404112 0.748211 4.897677
v -2.104371 0.825317 4.789553
v -4.282926 0.801218 -2.210677
v -4.183072 0.765676 -2.541311
v -4.094307 0.756190 -2.731834
v -3.763556 0.756462 -2.864135
v -6.719727 1.141826 1.387010
v -6.647685 1.119655 1.012446
v -6.501446 1.094376 0.556237
v 4.264734 1.066121 -2.467882
v 4.132031 0.736470 -2.537562
v 4.106970 0.755311 -3.278279
v 4.063757 0.644534 0.874660
v 4.248087 0.698228 0.771060
v 4.405611 0.739065 0.616478
v 4.533792 0.775456 -0.792692
v 4.498001 0.802374 -1.003484
v 4.296843 0.980199 -2.046844
v 4.551969 0.758153 0.371966
v 4.024595 0.757411 -3.906938
v 3.843647 0.604112 1.007237
v 2.453801 0.757130 -5.961284
v 3.041449 0.594682 3.173551
v 1.154879 0.757090 -3.981772
v 0.692409 0.625936 4.350764
v -0.263620 0.817814 -1.371801
v -1.757433 0.862042 4.689532
v -1.667104 0.894400 -1.855148
v -1.325893 1.070345 -1.338187
v -2.985287 0.713072 4.973379
v -3.481596 0.756627 -2.877807
v -6.720431 1.066046 1.834867
v -5.772609 0.645648 -1.781350
v -5.386038 0.696644 -2.153752
v -4.715590 0.778672 -2.234752
v -4.441495 0.804235 -2.204089
v -6.208032 1.032192 -0.067180
v -5.793221 0.919090 -0.344057
v -5.185937 0.707305 -2.225965
v -5.848553 0.646027 -1.679281
v -5.468717 0.293115 3.104064
v -5.807185 0.332971 2.760925
v -5.144621 0.288353 3.444153
v -4.712828 0.302019 3.923488
v -4.244237 0.316687 4.240258
v -3.788304 0.316371 4.555972
v -3.333772 0.324369 4.795514
v 3.023603 0.297579 2.551449
v 3.038229 0.270788 2.817039
v 3.037785 0.303172 2.350511
v 3.057273 0.299100 2.128797
v 3.142732 0.279127 1.879996
v -6.122365 0.392635 2.574349
v -6.492154 0.456599 2.301391
v 3.252058 0.246530 1.516417
v 3.497427 0.223811 1.174062
v -3.268403 0.390376 -2.768694
v -3.083297 0.389421 -2.701944
v -2.904711 0.388697 -2.620810
v 3.760982 0.392984 -4.621487
v 3.863918 0.392937 -4.232085
v 3.437571 0.391814 -5.408401
v -2.711664 0.388487 -2.547119
v -2.452735 0.388697 -2.436161
v -2.246383 0.389188 -2.293234
v -2.075179 0.415888 -2.174536
v -1.917444 0.467633 -1.994651
v 2.688023 0.391911 -5.890889
v 3.095672 0.391802 -5.770162
v 4.525586 0.389285 -0.351667
v 4.535259 0.389738 0.001963
v 4.479104 0.389435 -0.556765
v -5.522158 0.492123 -0.421091
v -5.587631 0.387547 -0.922213
v -5.703951 0.325760 -1.231769
v -5.759930 0.294873 -1.491078
v 0.142936 0.420942 -1.842509
v 0.781754 0.387349 -3.080491
v 1.076646 0.388642 -3.550845
v -0.910432 0.381536 4.489186
v -1.413847 0.462611 4.060028
v -0.192459 0.327690 3.908302
v 1.643149 0.389709 -4.667903
v 1.858904 0.391896 -5.130232
v 2.247021 0.390542 -5.631174
v 2.330706 0.134262 3.818358
v 1.597549 0.172333 3.868699
v 2.747846 0.154298 3.486564
v -1.095727 0.727438 -0.998975
v -0.814201 0.672044 -0.934610
v -0.517471 0.572405 -1.030078
v -2.427508 0.384347 4.812792
v -2.685690 0.344698 4.861113
v -2.131404 0.468148 4.705744
v -4.234077 0.437115 -2.151557
v -4.100264 0.400942 -2.510143
v -4.038088 0.391026 -2.674507
v -3.746810 0.390632 -2.778275
v -6.675037 0.702421 1.387555
v -6.587987 0.696479 1.031923
v -6.427534 0.695255 0.588031
v 4.048552 0.390063 -2.545454
v 4.181303 0.719450 -2.474873
v 4.018901 0.390639 -3.270725
v 4.197249 0.326181 0.700065
v 4.020156 0.277194 0.797792
v 4.337990 0.365700 0.561418
v 4.411158 0.429412 -0.989057
v 4.446595 0.404155 -0.779688
v 4.209309 0.611461 -2.036501
v 4.470981 0.388095 0.340684
v 3.937494 0.392223 -3.891842
v 3.793309 0.234485 0.935045
v 2.486961 0.391438 -5.886791
v 2.963015 0.214653 3.138381
v 1.234456 0.391957 -3.943541
v 0.690227 0.247545 4.270432
v -0.196439 0.460201 -1.315705
v -1.802946 0.516502 4.622275
v -1.737604 0.541343 -1.803331
v -1.393460 0.718724 -1.283623
v -2.977901 0.337387 4.887256
v -3.483962 0.391134 -2.789585
v -6.665465 0.643142 1.809303
v -5.709047 0.275542 -1.721740
v -5.341096 0.305263 -2.085351
v -4.717464 0.398068 -2.148229
v -4.438237 0.434885 -2.116806
v -6.147448 0.648909 -0.010934
v -5.745713 0.549449 -0.270032
v -5.169412 0.315122 -2.144968
v -5.771570 0.285137 -1.653053
vt 0.000000 0.000000
vt 1.000000 0.000000
vt 1.000000 1.000000
vt 0.000000 1.000000
vt 0.000000 0.000000
vt 1.000000 0.000000
vt 1.000000 1.000000
vt 0.000000 1.000000
vt 0.000000 0.000000
vt 1.000000 0.000000
vt 1.000000 1.000000
vt 0.000000 1.000000
vt 0.000000 0.000000
vt 1.000000 0.000000
vt 1.000000 1.000000
vt 0.000000 1.000000
vt 0.000000 0.000000
vt 1.000000 0.000000
vt 1.000000 1.000000
vt 0.000000 1.000000
vt 0.000000 0.000000
vt 1.000000 0.000000
vt 1.000000 1.000000
vt 0.000000 1.000000
vt 0.000000 0.000000
vt 1.000000 0.000000
vt 1.000000 1.000000
vt 0.000000 1.000000
vt 0.000000 0.000000
vt 1.000000 0.000000
vt 1.000000 1.000000
vt 0.000000 1.000000
vt 0.000000 0.000000
vt 1.000000 0.000000
vt 1.000000 1.000000
vt 0.000000 1.000000
vt 0.000000 0.000000
vt 1.000000 0.000000
vt 1.000000 1.000000
vt 0.000000 1.000000
vt 0.000000 0.000000
vt 1.000000 0.000000
vt 1.000000 1.000000
vt 0.000000 1.000000
vt 0.000000 0.000000
vt 1.000000 0.000000
vt 1.000000 1.000000
vt 0.000000 1.000000
vt 0.000000 0.000000
vt 1.000000 0.000000
vt 1.000000 1.000000
vt 0.000000 1.000000
vt 0.000000 0.000000
vt 1.000000 0.000000
vt 1.000000 1.000000
vt 0.000000 1.000000
vt 0.000000 0.000000
vt 1.000000 0.000000
vt 1.000000 1.000000
vt 0.000000 1.000000
vt 0.000000 0.000000
vt 1.000000 0.000000
vt 1.000000 1.000000
vt 0.000000 1.000000
vt 0.000000 0.000000
vt 1.000000 0.000000
vt 1.000000 1.000000
vt 0.000000 1.000000
vt 0.000000 0.000000
vt 1.000000 0.000000
vt 1.000000 1.000000
vt 0.000000 1.000000
vt 0.000000 0.000000
vt 1.000000 0.000000
vt 1.000000 1.000000
vt 0.000000 1.000000
vt 0.000000 0.000000
vt 1.000000 0.000000
vt 1.000000 1.000000
vt 0.000000 1.000000
vt 0.000000 0.000000
vt 1.000000 0.000000
vt 1.000000 1.000000
vt 0.000000 1.000000
vt 0.000000 0.000000
vt 1.000000 0.000000
vt 1.000000 1.000000
vt 0.000000 1.000000
vt 0.000000 0.000000
vt 1.000000 0.000000
vt 1.000000 1.000000
vt 0.000000 1.000000
vt 0.000000 0.000000
vt 1.000000 0.000000
vt 1.000000 1.000000
vt 0.000000 1.000000
vt 0.000000 0.000000
vt 1.000000 0.000000
vt 1.000000 1.000000
vt 0.000000 1.000000
vt 0.000000 0.000000
vt 1.000000 0.000000
vt 1.000000 1.000000
vt 0.000000 1.000000
vt 0.000000 0.000000
vt 1.000000 0.000000
vt 1.000000 1.000000
vt 0.000000 1.000000
vt 0.000000 0.000000
vt 1.000000 0.000000
vt 1.000000 1.000000
vt 0.000000 1.000000
vt 0.000000 0.000000
vt 1.000000 0.000000
vt 1.000000 1.000000
vt 0.000000 1.000000
vt 0.000000 0.000000
vt 1.000000 0.000000
vt 1.000000 1.000000
vt 0.000000 1.000000
vt 0.000000 0.000000
vt 1.000000 0.000000
vt 1.000000 1.000000
vt 0.000000 1.000000
vt 0.000000 0.000000
vt 1.000000 0.000000
vt 1.000000 1.000000
vt 0.000000 1.000000
vt 0.000000 0.000000
vt 1.000000 0.000000
vt 1.000000 1.000000
vt 0.000000 1.000000
vt 0.000000 0.000000
vt 1.000000 0.000000
vt 1.000000 1.000000
vt 0.000000 1.000000
vt 0.000000 0.000000
vt 1.000000 0.000000
vt 1.000000 1.000000
vt 0.000000 1.000000
vt 0.000000 0.000000
vt 1.000000 0.000000
vt 1.000000 1.000000
vt 0.000000 1.000000
vt 0.000000 0.000000
vt 1.000000 0.000000
vt 1.000000 1.000000
vt 0.000000 1.000000
vt 0.000000 0.000000
vt 1.000000 0.000000
vt 1.000000 1.000000
vt 0.000000 1.000000
vt 0.000000 0.000000
vt 1.000000 0.000000
vt 1.000000 1.000000
vt 0.000000 1.000000
vt 0.000000 0.000000
vt 1.000000 0.000000
vt 1.000000 1.000000
vt 0.000000 1.000000
vt 0.000000 0.000000
vt 1.000000 0.000000
vt 1.000000 1.000000
vt 0.000000 1.000000
vt 0.000000 0.000000
vt 1.000000 0.000000
vt 1.000000 1.000000
vt 0.000000 1.000000
vt 0.000000 0.000000
vt 1.000000 0.000000
vt 1.000000 1.000000
vt 0.000000 1.000000
vt 0.000000 0.000000
vt 1.000000 0.000000
vt 1.000000 1.000000
vt 0.000000 1.000000
vt 0.000000 0.000000
vt 1.000000 0.000000
vt 1.000000 1.000000
vt 0.000000 1.000000
vt 0.000000 0.000000
vt 1.000000 0.000000
vt 1.000000 1.000000
vt 0.000000 1.000000
vt 0.000000 0.000000
vt 1.000000 0.000000
vt 1.000000 1.000000
vt 0.000000 1.000000
vt 0.000000 0.000000
vt 1.000000 0.000000
vt 1.000000 1.000000
vt 0.000000 1.000000
vt 0.000000 0.000000
vt 1.000000 0.000000
vt 1.000000 1.000000
vt 0.000000 1.000000
vt 0.000000 0.000000
vt 1.000000 0.000000
vt 1.000000 1.000000
vt 0.000000 1.000000
vt 0.000000 0.000000
vt 1.000000 0.000000
vt 1.000000 1.000000
vt 0.000000 1.000000
vt 0.000000 0.000000
vt 1.000000 0.000000
vt 1.000000 1.000000
vt 0.000000 1.000000
vt 0.000000 0.000000
vt 1.000000 0.000000
vt 1.000000 1.000000
vt 0.000000 1.000000
vt 0.000000 0.000000
vt 1.000000 0.000000
vt 1.000000 1.000000
vt 0.000000 1.000000
vt 0.000000 0.000000
vt 1.000000 0.000000
vt 1.000000 1.000000
vt 0.000000 1.000000
vt 0.000000 0.000000
vt 1.000000 0.000000
vt 1.000000 1.000000
vt 0.000000 1.000000
vt 0.000000 0.000000
vt 1.000000 0.000000
vt 1.000000 1.000000
vt 0.000000 1.000000
vt 0.000000 0.000000
vt 1.000000 0.000000
vt 1.000000 1.000000
vt 0.000000 1.000000
vt 0.000000 0.000000
vt 1.000000 0.000000
vt 1.000000 1.000000
vt 0.000000 1.000000
vt 0.000000 0.000000
vt 1.000000 0.000000
vt 1.000000 1.000000
vt 0.000000 1.000000
vt 0.000000 0.000000
vt 1.000000 0.000000
vt 1.000000 1.000000
vt 0.000000 1.000000
vt 0.000000 0.000000
vt 1.000000 0.000000
vt 1.000000 1.000000
vt 0.000000 1.000000
vt 0.000000 0.000000
vt 1.000000 0.000000
vt 1.000000 1.000000
vt 0.000000 1.000000
vt 0.000000 0.000000
vt 1.000000 0.000000
vt 1.000000 1.000000
vt 0.000000 1.000000
vt 0.000000 0.000000
vt 1.000000 0.000000
vt 1.000000 1.000000
vt 0.000000 1.000000
vt 0.000000 0.000000
vt 1.000000 0.000000
vt 1.000000 1.000000
vt 0.000000 1.000000
vt 0.000000 0.000000
vt 1.000000 0.000000
vt 1.000000 1.000000
vt 0.000000 1.000000
vt 0.000000 0.000000
vt 1.000000 0.000000
vt 1.000000 1.000000
vt 0.000000 1.000000
vt 0.000000 0.000000
vt 1.000000 0.000000
vt 1.000000 1.000000
vt 0.000000 1.000000
vt 0.000000 0.000000
vt 1.000000 0.000000
vt 1.000000 1.000000
vt 0.000000 1.000000
vt 0.000000 0.000000
vt 1.000000 0.000000
vt 1.000000 1.000000
vt 0.000000 1.000000
vt 0.000000 0.000000
vt 1.000000 0.000000
vt 1.000000 1.000000
vt 0.000000 1.000000
vt 0.000000 0.000000
vt 1.000000 0.000000
vt 1.000000 1.000000
vt 0.000000 1.000000
vt 0.000000 0.000000
vt 1.000000 0.000000
vt 1.000000 1.000000
vt 0.000000 1.000000
vt 0.000000 0.000000
vt 1.000000 0.000000
vt 1.000000 1.000000
vt 0.000000 1.000000
vt 0.000000 0.000000
vt 1.000000 0.000000
vt 1.000000 1.000000
vt 0.000000 1.000000
vt 0.000000 0.000000
vt 1.000000 0.000000
vt 1.000000 1.000000
vt 0.000000 1.000000
vt 0.000000 0.000000
vt 1.000000 0.000000
vt 1.000000 1.000000
vt 0.000000 1.000000
vt 0.000000 0.000000
vt 1.000000 0.000000
vt 1.000000 1.000000
vt 0.000000 1.000000
vt 0.000000 0.000000
vt 1.000000 0.000000
vt 1.000000 1.000000
vt 0.000000 1.000000
vt 0.000000 0.000000
vt 1.000000 0.000000
vt 1.000000 1.000000
vt 0.000000 1.000000
vt 0.000000 0.000000
vt 1.000000 0.000000
vt 1.000000 1.000000
vt 0.000000 1.000000
vt 0.000000 0.000000
vt 1.000000 0.000000
vt 1.000000 1.000000
vt 0.000000 1.000000
vt 0.000000 0.000000
vt 1.000000 0.000000
vt 1.000000 1.000000
vt 0.000000 1.000000
vt 0.000000 0.000000
vt 1.000000 0.000000
vt 1.000000 1.000000
vt 0.000000 1.000000
vt 0.000000 0.000000
vt 1.000000 0.000000
vt 1.000000 1.000000
vt 0.000000 1.000000
vt 0.000000 0.000000
vt 1.000000 0.000000
vt 1.000000 1.000000
vt 0.000000 1.000000
vt 0.000000 0.000000
vt 1.000000 0.000000
vt 1.000000 1.000000
vt 0.000000 1.000000
vt 0.000000 0.000000
vt 1.000000 0.000000
vt 1.000000 1.000000
vt 0.000000 1.000000
vt 0.000000 0.000000
vt 1.000000 0.000000
vt 1.000000 1.000000
vt 0.000000 1.000000
vt 0.000000 0.000000
vt 1.000000 0.000000
vt 1.000000 1.000000
vt 0.000000 1.000000
vt 0.000000 0.000000
vt 1.000000 0.000000
vt 1.000000 1.000000
vt 0.000000 1.000000
vn 0.683640 0.170940 -0.709518
vn 0.640212 0.225280 -0.734423
vn 0.627310 0.225594 -0.745379
vn 0.685070 0.173827 -0.707435
vn 0.708541 0.060337 -0.703085
vn 0.709294 0.059383 -0.702407
vn 0.687654 0.063973 -0.723215
vn 0.684534 0.066567 -0.725935
vn 0.585272 0.176180 -0.791465
vn 0.584956 0.176774 -0.791566
vn 0.504850 0.230960 -0.831735
vn 0.504390 0.230956 -0.832016
vn 0.361368 0.229087 -0.903843
vn 0.357736 0.229008 -0.905307
vn -0.976957 0.212507 0.019906
vn -0.973013 0.216063 -0.081007
vn -0.974609 0.215840 -0.059582
vn -0.977055 0.212507 0.014317
vn -0.974556 0.211102 -0.075337
vn -0.974551 0.211098 -0.075422
vn -0.949881 0.212935 -0.228877
vn -0.951681 0.212909 -0.221299
vn -0.924621 0.214733 -0.314587
vn -0.924001 0.214497 -0.316566
vn 0.571916 0.219869 -0.790298
vn 0.579955 0.218744 -0.784732
vn 0.612935 0.213815 -0.760654
vn 0.612935 0.213815 -0.760654
vn -0.861609 0.220189 -0.457326
vn -0.868385 0.220129 -0.444355
vn -0.708052 0.223633 -0.669814
vn -0.710167 0.223531 -0.667605
vn -0.206495 0.234975 0.949814
vn -0.363239 0.234586 0.901680
vn -0.363053 0.234582 0.901756
vn -0.205879 0.234972 0.949948
vn -0.373123 0.235414 0.897418
vn -0.373207 0.235414 0.897383
vn -0.914070 0.231996 0.332648
vn -0.944655 0.234804 0.229117
vn -0.944644 0.234804 0.229162
vn -0.914073 0.231996 0.332640
vn -0.839809 0.230871 0.491344
vn -0.839881 0.230872 0.491221
vn -0.368341 0.234997 0.899501
vn -0.368318 0.234997 0.899510
vn -0.465128 0.236005 0.853204
vn -0.465089 0.236005 0.853226
vn -0.564062 0.235454 0.791451
vn -0.565098 0.235470 0.790707
vn -0.671212 0.237774 0.702095
vn -0.756223 0.237865 0.609547
vn -0.755017 0.238428 0.610821
vn -0.689082 0.237784 0.684562
vn -0.174549 0.223876 0.958860
vn -0.526762 0.230508 0.818161
vn -0.526759 0.230508 0.818163
vn -0.175437 0.223887 0.958695
vn -0.967583 0.233621 0.095936
vn -0.969585 0.231573 -0.079240
vn -0.969576 0.231571 -0.079351
vn -0.967572 0.233622 0.096047
vn -0.954565 0.232871 0.185949
vn -0.954835 0.232849 0.184582
vn 0.962909 0.192665 -0.188909
vn 0.937280 0.206106 -0.281116
vn 0.944185 0.203077 -0.259372
vn 0.962909 0.192665 -0.188909
vn 0.923695 0.223198 -0.311400
vn 0.961571 0.223386 -0.159626
vn 0.959491 0.223873 -0.171048
vn 0.919125 0.222520 -0.325106
vn 0.854094 0.239337 0.461781
vn 0.853575 0.239664 0.462570
vn 0.853778 0.239668 0.462193
vn 0.853161 0.239288 0.463528
vn 0.859233 0.238109 0.452795
vn 0.859762 0.238093 0.451797
vn 0.659928 0.123449 -0.741118
vn 0.659928 0.123449 -0.741118
vn 0.659928 0.123449 -0.741118
vn 0.659928 0.123449 -0.741118
vn -0.608964 0.156268 -0.777652
vn -0.608964 0.156268 -0.777652
vn -0.608964 0.156268 -0.777652
vn -0.608964 0.156268 -0.777652
vn 0.860144 0.234841 0.452772
vn 0.823235 0.235532 0.516536
vn 0.823164 0.235532 0.516649
vn 0.860153 0.234841 0.452755
vn 0.744654 0.228951 0.626954
vn 0.744700 0.228961 0.626896
vn -0.058993 0.213688 -0.975119
vn -0.238197 0.213236 -0.947519
vn -0.250205 0.212948 -0.944484
vn -0.058993 0.213688 -0.975119
vn -0.718452 0.219427 -0.660059
vn -0.610885 0.214108 -0.762219
vn -0.610885 0.214108 -0.762219
vn -0.731707 0.219774 -0.645217
vn -0.173106 0.224700 0.958929
vn -0.173106 0.224700 0.958929
vn -0.173106 0.224700 0.958929
vn -0.173106 0.224700 0.958929
vn 0.372433 0.228155 0.899577
vn 0.599695 0.235421 0.764815
vn 0.542899 0.235096 0.806220
vn 0.372433 0.228155 0.899577
vn -0.293959 0.234841 -0.926519
vn -0.140639 0.228884 -0.963241
vn -0.146360 0.229199 -0.962313
vn -0.314822 0.235224 -0.919541
vn -0.339169 0.233175 -0.911369
vn -0.327156 0.232443 -0.915936
vn 0.933207 0.205124 0.295042
vn 0.922664 0.209667 0.323622
vn 0.923917 0.209156 0.320360
vn 0.933207 0.205124 0.295042
vn 0.346676 0.213511 0.913361
vn 0.212641 0.224598 0.950968
vn 0.212052 0.224636 0.951090
vn 0.346676 0.213511 0.913361
vn 0.988198 0.118604 0.096940
vn 0.952281 0.149618 0.266035
vn 0.952889 0.148820 0.264303
vn 0.987534 0.118851 0.103203
vn 0.911657 0.187701 0.365581
vn 0.912895 0.186870 0.362907
vn -0.752496 0.167544 0.636930
vn -0.752496 0.167544 0.636930
vn -0.752496 0.167544 0.636930
vn -0.752496 0.167544 0.636930
vn -0.968669 0.234966 0.080451
vn -0.971362 0.234322 0.039356
vn -0.971362 0.234322 0.039356
vn -0.968629 0.234971 0.080913
vn -0.611418 0.230272 -0.757062
vn -0.529704 0.231877 -0.815872
vn -0.528344 0.231683 -0.816809
vn -0.636685 0.229553 -0.736164
vn -0.786400 0.226775 -0.574585
vn -0.796631 0.226694 -0.560347
vn -0.948848 0.230189 0.216104
vn -0.957401 0.231369 0.172777
vn -0.957078 0.231241 0.174724
vn -0.948493 0.230184 0.217660
vn -0.965491 0.231288 0.119722
vn -0.952533 0.230649 0.198699
vn -0.954484 0.230810 0.188908
vn -0.965491 0.231288 0.119722
vn -0.917900 0.229899 -0.323430
vn -0.920356 0.229933 -0.316347
vn -0.959427 0.235339 0.155291
vn -0.959407 0.235339 0.155416
vn -0.583595 0.228736 -0.779164
vn -0.579470 0.229086 -0.782134
vn 0.698867 0.218951 0.680915
vn 0.698867 0.218951 0.680915
vn 0.043247 0.215757 0.975489
vn 0.043247 0.215757 0.975489
vn -0.902652 0.220093 -0.369835
vn -0.913540 0.219933 -0.342160
vn 0.866471 0.235588 0.440144
vn 0.866275 0.235583 0.440532
vn 0.391601 0.177559 -0.902841
vn 0.391601 0.177559 -0.902841
vn 0.391601 0.177559 -0.902841
vn 0.391601 0.177559 -0.902841
vn -0.376656 0.207793 -0.902747
vn -0.376656 0.207793 -0.902747
vn 0.783018 0.237232 0.574982
vn 0.770292 0.236909 0.592051
vn -0.281988 0.229382 -0.931594
vn -0.281988 0.229382 -0.931594
vn -0.820747 0.158852 -0.548763
vn -0.820747 0.158852 -0.548763
vn -0.820747 0.158852 -0.548763
vn -0.820747 0.158852 -0.548763
vn -0.812750 0.239428 0.531141
vn -0.795693 0.237439 0.557222
vn -0.781577 0.236998 0.577035
vn -0.825802 0.238921 0.510850
vn -0.680683 0.230869 0.695248
vn -0.680683 0.230869 0.695248
vn 0.095230 0.227711 -0.969061
vn 0.089753 0.227755 -0.969573
vn -0.018725 0.233142 0.972262
vn -0.018618 0.233141 0.972265
vn 0.952859 0.159180 -0.258304
vn 0.977730 0.142715 -0.153872
vn 0.983779 0.136475 -0.116420
vn 0.952859 0.159180 -0.258304
vn 0.686270 0.215740 0.694614
vn 0.586294 0.214996 0.781048
vn 0.576173 0.214839 0.788587
vn 0.685849 0.215720 0.695037
vn -0.059179 0.215678 0.974670
vn -0.043464 0.217156 0.975169
vn -0.037158 0.216645 0.975543
vn -0.067659 0.216632 0.973906
vn 0.775731 0.214631 0.593443
vn 0.801973 0.212410 0.558320
vn 0.564921 0.212609 0.797284
vn 0.567966 0.214592 0.794585
vn 0.091540 0.210915 0.973209
vn 0.072436 0.211187 0.974758
vn 0.974618 0.217467 -0.053182
vn 0.974618 0.217467 -0.053182
vn 0.549530 0.202636 0.810528
vn 0.549530 0.202636 0.810528
vn 0.902512 0.217007 0.371994
vn 0.902512 0.217007 0.371994
vn 0.111330 0.202130 0.973010
vn 0.111330 0.202130 0.973010
vn 0.764201 0.218202 0.606948
vn 0.764201 0.218202 0.606948
f 93/1/1 94/2/2 1/3/3 2/4/4
f 95/5/5 93/6/1 2/7/4 3/8/6
f 96/9/7 95/10/5 3/11/6 4/12/8
f 97/13/9 96/14/7 4/15/8 5/16/10
f 98/17/11 97/18/9 5/19/10 6/20/12
f 99/21/13 98/22/11 6/23/12 7/24/14
f 100/25/15 101/26/16 8/27/17 9/28/18
f 102/29/19 100/30/15 9/31/18 10/32/20
f 103/33/21 102/34/19 10/35/20 11/36/22
f 104/37/23 103/38/21 11/39/22 12/40/24
f 94/41/2 105/42/25 13/43/26 1/44/3
f 105/45/25 106/46/27 14/47/28 13/48/26
f 107/49/29 104/50/23 12/51/24 15/52/30
f 108/53/31 107/54/29 15/55/30 16/56/32
f 109/57/33 110/58/34 18/59/35 17/60/36
f 110/61/34 111/62/37 19/63/38 18/64/35
f 112/65/39 113/66/40 20/67/41 21/68/42
f 114/69/43 112/70/39 21/71/42 22/72/44
f 111/73/37 115/74/45 23/75/46 19/76/38
f 115/77/45 116/78/47 24/79/48 23/80/46
f 116/81/47 117/82/49 25/83/50 24/84/48
f 118/85/51 119/86/52 27/87/53 26/88/54
f 120/89/55 121/90/56 29/91/57 28/92/58
f 122/93/59 123/94/60 30/95/61 31/96/62
f 124/97/63 122/98/59 31/99/62 32/100/64
f 125/101/65 126/102/66 34/103/67 33/104/68
f 127/105/69 128/106/70 36/107/71 35/108/72
f 129/109/73 130/110/74 38/111/75 37/112/76
f 130/113/74 131/114/77 39/115/78 38/116/75
f 132/117/79 133/118/80 40/119/81 41/120/82
f 134/121/83 132/122/84 41/123/85 42/124/86
f 135/125/87 136/126/88 44/127/89 43/128/90
f 136/129/88 137/130/91 45/131/92 44/132/89
f 138/133/93 139/134/94 46/135/95 47/136/96
f 140/137/97 138/138/98 47/139/99 48/140/100
f 141/141/101 142/142/102 50/143/103 49/144/104
f 142/145/105 143/146/106 51/147/107 50/148/108
f 144/149/109 145/150/110 52/151/111 53/152/112
f 146/153/113 144/154/109 53/155/112 54/156/114
f 147/157/115 148/158/116 56/159/117 55/160/118
f 149/161/119 150/162/120 58/163/121 57/164/122
f 151/165/123 152/166/124 60/167/125 59/168/126
f 152/169/124 153/170/127 61/171/128 60/172/125
f 154/173/129 155/174/130 62/175/131 63/176/132
f 156/177/133 154/178/134 63/179/135 64/180/136
f 157/181/137 158/182/138 65/183/139 66/184/140
f 159/185/141 157/186/137 66/187/140 67/188/142
f 160/189/143 161/190/144 68/191/145 69/192/146
f 155/193/147 162/194/148 70/195/149 62/196/150
f 163/197/151 159/198/141 67/199/142 71/200/152
f 123/201/60 163/202/151 71/203/152 30/204/61
f 164/205/153 156/206/133 64/207/136 72/208/154
f 113/209/40 164/210/153 72/211/154 20/212/41
f 165/213/155 108/214/31 16/215/32 73/216/156
f 158/217/138 165/218/155 73/219/156 65/220/139
f 137/221/91 166/222/157 74/223/158 45/224/92
f 166/225/159 120/226/55 28/227/58 74/228/160
f 167/229/161 140/230/97 48/231/100 75/232/162
f 101/233/16 167/234/161 75/235/162 8/236/17
f 131/237/77 168/238/163 76/239/164 39/240/78
f 168/241/163 135/242/87 43/243/90 76/244/164
f 169/245/165 134/246/166 42/247/167 77/248/168
f 139/249/94 169/250/169 77/251/170 46/252/95
f 143/253/106 170/254/171 78/255/172 51/256/107
f 170/257/171 129/258/73 37/259/76 78/260/172
f 171/261/173 146/262/113 54/263/114 79/264/174
f 133/265/175 171/266/176 79/267/177 40/268/178
f 172/269/179 173/270/180 81/271/181 80/272/182
f 173/273/180 141/274/183 49/275/184 81/276/181
f 174/277/185 99/278/13 7/279/14 82/280/186
f 145/281/110 174/282/185 82/283/186 52/284/111
f 150/285/120 175/286/187 83/287/188 58/288/121
f 175/289/187 109/290/33 17/291/36 83/292/188
f 106/293/189 176/294/190 84/295/191 14/296/192
f 176/297/190 151/298/123 59/299/126 84/300/191
f 177/301/193 178/302/194 86/303/195 85/304/196
f 179/305/197 180/306/198 88/307/199 87/308/200
f 153/309/127 181/310/201 89/311/202 61/312/128
f 181/313/201 182/314/203 90/315/204 89/316/202
f 121/317/56 114/318/43 22/319/44 29/320/57
f 162/321/148 160/322/143 69/323/146 70/324/149
f 161/325/144 124/326/63 32/327/64 68/328/145
f 119/329/52 172/330/179 80/331/182 27/332/53
f 117/333/49 118/334/51 26/335/54 25/336/50
f 183/337/205 179/338/197 87/339/200 91/340/206
f 126/341/66 127/342/69 35/343/72 34/344/67
f 128/345/70 184/346/207 92/347/208 36/348/71
f 182/349/203 125/350/209 33/351/210 90/352/204
f 148/353/116 149/354/211 57/355/212 56/356/117
f 180/357/198 147/358/213 55/359/214 88/360/199
f 178/361/194 183/362/205 91/363/206 86/364/195
f 184/365/215 177/366/193 85/367/196 92/368/216
